<svg xmlns="http://www.w3.org/2000/svg" viewBox="0 0 800 360" role="img" aria-label="The Packing Manifest">
  <g opacity="0.05" stroke="#5a6b3e" stroke-width="1.2" fill="none">
    <path d="M 40 40 Q 240 20 440 50 T 800 30"/>
    <path d="M 20 90 Q 220 70 420 100 T 780 80"/>
    <path d="M 60 290 Q 260 270 460 300 T 800 280"/>
    <path d="M 40 330 Q 240 310 440 340 T 780 320"/>
  </g>
  <text x="400" y="50" text-anchor="middle" font-family="'JetBrains Mono', monospace" font-size="11" letter-spacing="6" fill="#8a8775">TRANS · EUROPEAN · VOYAGE</text>
  <line x1="280" y1="68" x2="520" y2="68" stroke="#c89028" stroke-width="0.5" stroke-dasharray="2 4" opacity="0.6"/>
  <circle cx="118" cy="180" r="56" fill="#5a6b3e"/>
  <path d="M 78 216 L 100 184 L 112 196 L 129 172 L 158 210 Z" fill="#fbf8f1"/>
  <path d="M 100 184 L 112 196 L 118 190 L 112 180 Z" fill="#1f2419" opacity="0.25"/>
  <circle cx="129" cy="164" r="5" fill="#fbf8f1"/>
  <text x="200" y="170" font-family="'Fraunces', 'Playfair Display', Georgia, serif" font-size="40" font-weight="700" fill="#1f2419" letter-spacing="-1">The Packing</text>
  <text x="200" y="226" font-family="'Fraunces', 'Playfair Display', Georgia, serif" font-size="60" font-weight="400" font-style="italic" fill="#5a6b3e">Manifest</text>
  <text x="200" y="262" font-family="'JetBrains Mono', monospace" font-size="11" letter-spacing="3" fill="#5c4a35">YOUR FIELD GUIDE TO PACKING WELL</text>
  <line x1="380" y1="318" x2="420" y2="318" stroke="#8a8775" stroke-width="0.5"/>
  <circle cx="400" cy="318" r="2" fill="#c89028"/>
  <text x="400" y="338" text-anchor="middle" font-family="'JetBrains Mono', monospace" font-size="9" letter-spacing="3" fill="#a08968">EST. 2025  ·  47°N</text>
</svg>
