<svg xmlns="http://www.w3.org/2000/svg" viewBox="0 0 1200 630" role="img" aria-label="The Packing Manifest">
  <rect width="1200" height="630" fill="#f5f1ea"/>
  <g opacity="0.08" stroke="#5a6b3e" stroke-width="1.5" fill="none">
    <path d="M 100 100 Q 300 80 500 120 T 900 100 T 1100 130"/>
    <path d="M 80 180 Q 280 160 480 200 T 880 180 T 1080 210"/>
    <path d="M 60 260 Q 260 240 460 280 T 860 260 T 1060 290"/>
    <path d="M 100 460 Q 300 440 500 480 T 900 460 T 1100 490"/>
    <path d="M 80 540 Q 280 520 480 560 T 880 540 T 1080 570"/>
  </g>
  <text x="600" y="120" text-anchor="middle" font-family="'JetBrains Mono', monospace" font-size="14" letter-spacing="6" fill="#8a8775">TRANS · EUROPEAN · VOYAGE</text>
  <circle cx="600" cy="240" r="64" fill="#5a6b3e"/>
  <path d="M 555 280 L 580 244 L 593 257 L 612 232 L 645 274 Z" fill="#fbf8f1"/>
  <path d="M 580 244 L 593 257 L 600 250 L 593 240 Z" fill="#1f2419" opacity="0.25"/>
  <circle cx="612" cy="222" r="6" fill="#fbf8f1"/>
  <text x="600" y="400" text-anchor="middle" font-family="'Fraunces', 'Playfair Display', Georgia, serif" font-size="64" font-weight="700" fill="#1f2419" letter-spacing="-2">The Packing</text>
  <text x="600" y="486" text-anchor="middle" font-family="'Fraunces', 'Playfair Display', Georgia, serif" font-size="92" font-weight="400" font-style="italic" fill="#5a6b3e">Manifest</text>
  <line x1="450" y1="525" x2="750" y2="525" stroke="#c89028" stroke-width="1" stroke-dasharray="4 4"/>
  <text x="600" y="560" text-anchor="middle" font-family="'JetBrains Mono', monospace" font-size="16" letter-spacing="4" fill="#5c4a35">YOUR FIELD GUIDE TO PACKING WELL</text>
</svg>
